<svg width="23" height="23" viewBox="0 0 23 23" fill="none" xmlns="http://www.w3.org/2000/svg">
<g id="k.lb">
<g id="Group">
<g id="Group_2">
<path id="Vector" d="M15.8123 13.4167C14.3748 13.4167 13.2248 13.8 12.3623 14.2792C13.704 15.4292 14.279 16.7709 14.3748 16.8667L14.4706 17.0584V19.1667H22.1373V17.25C22.0415 17.25 20.5081 13.4167 15.8123 13.4167Z" fill="#0499DD"/>
</g>
<g id="Group_3">
<path id="Vector_2" d="M15.8122 11.5C17.6646 11.5 19.1663 9.99831 19.1663 8.14585C19.1663 6.2934 17.6646 4.79169 15.8122 4.79169C13.9597 4.79169 12.458 6.2934 12.458 8.14585C12.458 9.99831 13.9597 11.5 15.8122 11.5Z" fill="#0499DD"/>
</g>
</g>
<g id="Group_4">
<path id="Vector_3" d="M3.8335 8.14585C3.8335 6.32502 5.36683 4.79169 7.18766 4.79169C9.0085 4.79169 10.5418 6.32502 10.5418 8.14585C10.5418 9.96669 9.0085 11.5 7.18766 11.5C5.36683 11.5 3.8335 9.96669 3.8335 8.14585ZM7.18766 13.4167C2.49183 13.4167 0.958496 17.25 0.958496 17.25V19.1667H13.4168V17.25C13.4168 17.25 11.8835 13.4167 7.18766 13.4167Z" fill="#0499DD"/>
</g>
</g>
</svg>
